<mxfile host="65bd71144e">
    <diagram id="1rIWrmUhH45cq-ZpR6kb" name="Page-1">
        <mxGraphModel dx="627" dy="345" grid="0" gridSize="10" guides="1" tooltips="1" connect="1" arrows="1" fold="1" page="1" pageScale="1" pageWidth="850" pageHeight="1100" background="#FFFFFF" math="0" shadow="0">
            <root>
                <mxCell id="0"/>
                <mxCell id="1" parent="0"/>
                <mxCell id="2" value="&lt;&lt;IObserver&gt;&gt;" style="swimlane;strokeWidth=2;strokeColor=#BD7000;fillColor=#f0a30a;fontColor=#000000;fontStyle=3" vertex="1" parent="1">
                    <mxGeometry x="141" y="28" width="291" height="54" as="geometry"/>
                </mxCell>
                <mxCell id="4" value="&lt;b&gt;+ update(String stockName, double price): void&lt;/b&gt;" style="text;html=1;strokeColor=none;fillColor=none;align=center;verticalAlign=middle;whiteSpace=wrap;rounded=0;strokeWidth=2;fontColor=#000000;" vertex="1" parent="2">
                    <mxGeometry x="3" y="23" width="279" height="30" as="geometry"/>
                </mxCell>
                <mxCell id="5" value="MobileApp" style="swimlane;strokeWidth=2;strokeColor=#2D7600;fillColor=#60a917;fontColor=#ffffff;fontStyle=1" vertex="1" parent="1">
                    <mxGeometry x="11" y="160" width="294" height="55" as="geometry"/>
                </mxCell>
                <mxCell id="9" value="&lt;b&gt;+ update(String stockName, double price): void&lt;/b&gt;" style="text;html=1;strokeColor=none;fillColor=none;align=center;verticalAlign=middle;whiteSpace=wrap;rounded=0;strokeWidth=2;fontColor=#000000;" vertex="1" parent="5">
                    <mxGeometry y="24" width="277" height="30" as="geometry"/>
                </mxCell>
                <mxCell id="14" value="" style="endArrow=block;html=1;strokeWidth=3;entryX=0.05;entryY=1.042;entryDx=0;entryDy=0;exitX=0.5;exitY=0;exitDx=0;exitDy=0;strokeColor=#CC00CC;endFill=0;endSize=10;dashed=1;entryPerimeter=0;" edge="1" parent="1" source="5" target="4">
                    <mxGeometry relative="1" as="geometry">
                        <mxPoint x="224" y="216" as="sourcePoint"/>
                        <mxPoint x="324" y="216" as="targetPoint"/>
                    </mxGeometry>
                </mxCell>
                <mxCell id="15" value="&lt;span style=&quot;background-color: rgb(255, 255, 255);&quot;&gt;Implements&lt;/span&gt;" style="edgeLabel;resizable=0;html=1;align=center;verticalAlign=middle;fontColor=#000000;fontStyle=1" connectable="0" vertex="1" parent="14">
                    <mxGeometry relative="1" as="geometry"/>
                </mxCell>
                <mxCell id="16" value="&lt;&lt;ISubject&gt;&gt;" style="swimlane;strokeWidth=2;strokeColor=#BD7000;fillColor=#f0a30a;fontColor=#000000;fontStyle=3" vertex="1" parent="1">
                    <mxGeometry x="558" y="28" width="227" height="120" as="geometry"/>
                </mxCell>
                <mxCell id="17" value="&lt;b&gt;+ attach(IObserver): void&lt;/b&gt;" style="text;html=1;strokeColor=none;fillColor=none;align=center;verticalAlign=middle;whiteSpace=wrap;rounded=0;strokeWidth=2;fontColor=#000000;" vertex="1" parent="16">
                    <mxGeometry x="-18" y="22" width="196" height="30" as="geometry"/>
                </mxCell>
                <mxCell id="18" value="&lt;b&gt;+ detach(IObserver): void&lt;/b&gt;" style="text;html=1;strokeColor=none;fillColor=none;align=center;verticalAlign=middle;whiteSpace=wrap;rounded=0;strokeWidth=2;fontColor=#000000;" vertex="1" parent="16">
                    <mxGeometry x="8" y="47" width="148" height="30" as="geometry"/>
                </mxCell>
                <mxCell id="35" value="&lt;b&gt;+ notifyObservers(): void&lt;/b&gt;" style="text;html=1;strokeColor=none;fillColor=none;align=center;verticalAlign=middle;whiteSpace=wrap;rounded=0;strokeWidth=2;fontColor=#000000;" vertex="1" parent="16">
                    <mxGeometry x="8" y="75" width="147" height="30" as="geometry"/>
                </mxCell>
                <mxCell id="19" value="StockPrice" style="swimlane;strokeWidth=2;strokeColor=#2D7600;fillColor=#60a917;fontColor=#ffffff;fontStyle=1" vertex="1" parent="1">
                    <mxGeometry x="460" y="239" width="288" height="263" as="geometry"/>
                </mxCell>
                <mxCell id="20" value="&lt;b&gt;+ getStockName(): String&lt;/b&gt;" style="text;html=1;strokeColor=none;fillColor=none;align=center;verticalAlign=middle;whiteSpace=wrap;rounded=0;strokeWidth=2;fontColor=#000000;" vertex="1" parent="19">
                    <mxGeometry x="-17" y="108.5" width="196" height="30" as="geometry"/>
                </mxCell>
                <mxCell id="21" value="&lt;b&gt;+ getPrice(): double&lt;/b&gt;" style="text;html=1;strokeColor=none;fillColor=none;align=center;verticalAlign=middle;whiteSpace=wrap;rounded=0;strokeWidth=2;fontColor=#000000;" vertex="1" parent="19">
                    <mxGeometry x="-9" y="135" width="148" height="30" as="geometry"/>
                </mxCell>
                <mxCell id="23" value="&lt;b&gt;+ StockPrice(String stockName, double price)&lt;/b&gt;" style="text;html=1;strokeColor=none;fillColor=none;align=center;verticalAlign=middle;whiteSpace=wrap;rounded=0;strokeWidth=2;fontColor=#000000;" vertex="1" parent="19">
                    <mxGeometry x="3" y="85" width="271" height="30" as="geometry"/>
                </mxCell>
                <mxCell id="24" value="&lt;b&gt;- stockName&lt;/b&gt;" style="text;html=1;strokeColor=none;fillColor=none;align=center;verticalAlign=middle;whiteSpace=wrap;rounded=0;strokeWidth=2;fontColor=#000000;" vertex="1" parent="19">
                    <mxGeometry x="3" y="17" width="84" height="30" as="geometry"/>
                </mxCell>
                <mxCell id="25" value="&lt;b&gt;- List&amp;lt;IObserver&amp;gt; observers&lt;/b&gt;" style="text;html=1;strokeColor=none;fillColor=none;align=center;verticalAlign=middle;whiteSpace=wrap;rounded=0;strokeWidth=2;fontColor=#000000;" vertex="1" parent="19">
                    <mxGeometry x="3" y="58" width="171" height="30" as="geometry"/>
                </mxCell>
                <mxCell id="26" value="&lt;b&gt;- price&lt;/b&gt;" style="text;html=1;strokeColor=none;fillColor=none;align=center;verticalAlign=middle;whiteSpace=wrap;rounded=0;strokeWidth=2;fontColor=#000000;" vertex="1" parent="19">
                    <mxGeometry x="-9" y="36" width="71" height="30" as="geometry"/>
                </mxCell>
                <mxCell id="27" value="" style="endArrow=none;html=1;strokeWidth=2;fillColor=#60a917;strokeColor=#2D7600;" edge="1" parent="19">
                    <mxGeometry width="50" height="50" relative="1" as="geometry">
                        <mxPoint x="-1" y="88" as="sourcePoint"/>
                        <mxPoint x="288" y="86" as="targetPoint"/>
                        <Array as="points">
                            <mxPoint x="79" y="88"/>
                        </Array>
                    </mxGeometry>
                </mxCell>
                <mxCell id="39" value="&lt;b&gt;+ updatePrice(double price): void&lt;/b&gt;" style="text;html=1;strokeColor=none;fillColor=none;align=center;verticalAlign=middle;whiteSpace=wrap;rounded=0;strokeWidth=2;fontColor=#000000;" vertex="1" parent="19">
                    <mxGeometry x="-9" y="160" width="226" height="30" as="geometry"/>
                </mxCell>
                <mxCell id="36" value="&lt;b&gt;+ attach(IObserver): void&lt;/b&gt;" style="text;html=1;strokeColor=none;fillColor=none;align=center;verticalAlign=middle;whiteSpace=wrap;rounded=0;strokeWidth=2;fontColor=#000000;" vertex="1" parent="19">
                    <mxGeometry x="-19" y="185" width="196" height="30" as="geometry"/>
                </mxCell>
                <mxCell id="37" value="&lt;b&gt;+ detach(IObserver): void&lt;/b&gt;" style="text;html=1;strokeColor=none;fillColor=none;align=center;verticalAlign=middle;whiteSpace=wrap;rounded=0;strokeWidth=2;fontColor=#000000;" vertex="1" parent="19">
                    <mxGeometry x="7" y="209" width="148" height="30" as="geometry"/>
                </mxCell>
                <mxCell id="38" value="&lt;b&gt;+ notifyObservers(): void&lt;/b&gt;" style="text;html=1;strokeColor=none;fillColor=none;align=center;verticalAlign=middle;whiteSpace=wrap;rounded=0;strokeWidth=2;fontColor=#000000;" vertex="1" parent="19">
                    <mxGeometry x="7" y="234" width="147" height="30" as="geometry"/>
                </mxCell>
                <mxCell id="28" value="" style="endArrow=block;html=1;strokeWidth=3;exitX=0.5;exitY=0;exitDx=0;exitDy=0;strokeColor=#CC00CC;endFill=0;endSize=10;dashed=1;" edge="1" parent="1" source="19">
                    <mxGeometry relative="1" as="geometry">
                        <mxPoint x="549" y="216" as="sourcePoint"/>
                        <mxPoint x="604" y="148" as="targetPoint"/>
                    </mxGeometry>
                </mxCell>
                <mxCell id="29" value="&lt;span style=&quot;background-color: rgb(255, 255, 255);&quot;&gt;Implements&lt;/span&gt;" style="edgeLabel;resizable=0;html=1;align=center;verticalAlign=middle;fontColor=#000000;fontStyle=1" connectable="0" vertex="1" parent="28">
                    <mxGeometry relative="1" as="geometry"/>
                </mxCell>
                <mxCell id="30" value="WebApp" style="swimlane;strokeWidth=2;strokeColor=#2D7600;fillColor=#60a917;fontColor=#ffffff;fontStyle=1" vertex="1" parent="1">
                    <mxGeometry x="11" y="258" width="294" height="55" as="geometry"/>
                </mxCell>
                <mxCell id="31" value="&lt;b&gt;+ update(String stockName, double price): void&lt;/b&gt;" style="text;html=1;strokeColor=none;fillColor=none;align=center;verticalAlign=middle;whiteSpace=wrap;rounded=0;strokeWidth=2;fontColor=#000000;" vertex="1" parent="30">
                    <mxGeometry y="24" width="277" height="30" as="geometry"/>
                </mxCell>
                <mxCell id="32" value="" style="endArrow=block;html=1;strokeWidth=3;exitX=1;exitY=0.25;exitDx=0;exitDy=0;strokeColor=#CC00CC;endFill=0;endSize=10;dashed=1;" edge="1" parent="1" source="30">
                    <mxGeometry relative="1" as="geometry">
                        <mxPoint x="255" y="337" as="sourcePoint"/>
                        <mxPoint x="412" y="83" as="targetPoint"/>
                        <Array as="points">
                            <mxPoint x="412" y="269"/>
                        </Array>
                    </mxGeometry>
                </mxCell>
                <mxCell id="33" value="&lt;span style=&quot;background-color: rgb(255, 255, 255);&quot;&gt;Implements&lt;/span&gt;" style="edgeLabel;resizable=0;html=1;align=center;verticalAlign=middle;fontColor=#000000;fontStyle=1" connectable="0" vertex="1" parent="32">
                    <mxGeometry relative="1" as="geometry"/>
                </mxCell>
                <mxCell id="40" value="" style="endArrow=block;html=1;strokeWidth=3;strokeColor=#006EAF;endFill=0;endSize=10;entryX=1;entryY=0.5;entryDx=0;entryDy=0;fillColor=#1ba1e2;" edge="1" parent="1" target="2">
                    <mxGeometry relative="1" as="geometry">
                        <mxPoint x="530" y="238" as="sourcePoint"/>
                        <mxPoint x="422" y="93" as="targetPoint"/>
                        <Array as="points">
                            <mxPoint x="530" y="176"/>
                            <mxPoint x="532" y="55"/>
                        </Array>
                    </mxGeometry>
                </mxCell>
                <mxCell id="41" value="&lt;span style=&quot;background-color: rgb(255, 255, 255);&quot;&gt;Has A&lt;/span&gt;" style="edgeLabel;resizable=0;html=1;align=center;verticalAlign=middle;fontColor=#000000;fontStyle=1" connectable="0" vertex="1" parent="40">
                    <mxGeometry relative="1" as="geometry"/>
                </mxCell>
            </root>
        </mxGraphModel>
    </diagram>
</mxfile>